<?xml version="1.0" encoding="UTF-8" standalone="no"?>
<svg
   xmlns:dc="http://purl.org/dc/elements/1.1/"
   xmlns:cc="http://creativecommons.org/ns#"
   xmlns:rdf="http://www.w3.org/1999/02/22-rdf-syntax-ns#"
   xmlns:svg="http://www.w3.org/2000/svg"
   xmlns="http://www.w3.org/2000/svg"
   xmlns:sodipodi="http://sodipodi.sourceforge.net/DTD/sodipodi-0.dtd"
   xmlns:inkscape="http://www.inkscape.org/namespaces/inkscape"
   width="100%"
   height="100%"
   viewBox="0 0 847 291"
   version="1.1"
   xml:space="preserve"
   style="fill-rule:evenodd;clip-rule:evenodd;stroke-linejoin:round;stroke-miterlimit:1.41421;"
   id="svg2"
   inkscape:version="0.91 r13725"
   sodipodi:docname="zeroday-logo_url_bw.svg"><metadata
     id="metadata86"><rdf:RDF><cc:Work
         rdf:about=""><dc:format>image/svg+xml</dc:format><dc:type
           rdf:resource="http://purl.org/dc/dcmitype/StillImage" /><dc:title></dc:title></cc:Work></rdf:RDF></metadata><defs
     id="defs84" /><sodipodi:namedview
     pagecolor="#ffffff"
     bordercolor="#666666"
     borderopacity="1"
     objecttolerance="10"
     gridtolerance="10"
     guidetolerance="10"
     inkscape:pageopacity="0"
     inkscape:pageshadow="2"
     inkscape:window-width="1920"
     inkscape:window-height="1056"
     id="namedview82"
     showgrid="false"
     inkscape:zoom="1.0752698"
     inkscape:cx="499.52052"
     inkscape:cy="-49.099946"
     inkscape:window-x="0"
     inkscape:window-y="24"
     inkscape:window-maximized="1"
     inkscape:current-layer="svg2" /><g
     transform="matrix(3.7178521,0,0,3.7178521,-6.700805,17.998586)"
     id="g8"
     style="fill:#4d4d4d"><path
       d="m 6.375,12.074 c 0.898,0 1.648,-0.226 2.398,-0.676 2.477,1.727 10.875,7.727 12.227,8.551 1.199,0.75 2.25,1.426 3.824,1.5 0.75,0 2.399,0.074 4.949,0.074 0.524,1.051 1.649,1.801 2.926,1.801 1.801,0 3.301,-1.5 3.301,-3.301 0,-1.8 -1.5,-3.3 -3.301,-3.3 -1.574,0 -2.926,1.125 -3.226,2.625 -2.325,0 -3.899,0 -4.575,-0.075 -0.976,0 -1.574,-0.375 -2.699,-1.125 C 21,17.398 13.051,11.699 10.348,9.824 c 0.3,-0.601 0.523,-1.351 0.523,-2.101 0,-2.477 -2.023,-4.426 -4.426,-4.426 -2.398,0 -4.425,2.023 -4.425,4.426 0,2.398 1.878,4.351 4.355,4.351 z m 0,-6.676 c 1.199,0 2.176,0.977 2.176,2.176 0,1.199 -0.977,2.176 -2.176,2.176 -1.199,0 -2.176,-0.977 -2.176,-2.176 0,-1.199 0.977,-2.176 2.176,-2.176 z"
       style="fill:#4d4d4d;fill-rule:nonzero"
       id="path10"
       inkscape:connector-curvature="0" /></g><g
     transform="matrix(3.7178521,0,0,3.7178521,-6.700805,17.998586)"
     id="g12"
     style="fill:#4d4d4d"><path
       d="m 10.801,32.324 6.601,0 c 0.45,1.274 1.649,2.176 3.075,2.176 1.8,0 3.3,-1.5 3.3,-3.301 0,-1.801 -1.5,-3.301 -3.3,-3.301 -1.426,0 -2.625,0.899 -3.075,2.176 l -6.601,0 c -0.524,-1.875 -2.25,-3.301 -4.274,-3.301 -2.476,0 -4.425,2.024 -4.425,4.426 0,2.399 2.023,4.426 4.425,4.426 2.098,0.074 3.825,-1.352 4.274,-3.301 z M 4.352,31.199 c 0,-1.199 0.976,-2.176 2.175,-2.176 1.2,0 2.176,0.977 2.176,2.176 0,1.199 -0.976,2.176 -2.176,2.176 -1.203,0.074 -2.175,-0.977 -2.175,-2.176 z"
       style="fill:#4d4d4d;fill-rule:nonzero"
       id="path14"
       inkscape:connector-curvature="0" /></g><g
     transform="matrix(3.7178521,0,0,3.7178521,-6.700805,17.998586)"
     id="g16"
     style="fill:#4d4d4d"><path
       d="m 11.773,44.176 c 2.024,0 3.825,-1.426 4.274,-3.301 l 1.351,0 c 0.45,1.273 1.649,2.176 3.075,2.176 1.8,0 3.3,-1.5 3.3,-3.301 0,-1.801 -1.5,-3.301 -3.3,-3.301 -1.426,0 -2.625,0.899 -3.075,2.176 l -1.351,0 c -0.524,-1.875 -2.25,-3.301 -4.274,-3.301 -2.476,0 -4.425,2.024 -4.425,4.426 0,2.398 1.953,4.426 4.425,4.426 z m 0,-6.676 c 1.2,0 2.176,0.977 2.176,2.176 0,1.199 -0.976,2.176 -2.176,2.176 -1.199,0 -2.175,-0.977 -2.175,-2.176 0,-1.199 0.976,-2.176 2.175,-2.176 z"
       style="fill:#4d4d4d;fill-rule:nonzero"
       id="path18"
       inkscape:connector-curvature="0" /></g><g
     transform="matrix(3.7178521,0,0,3.7178521,-6.700805,17.998586)"
     id="g20"
     style="fill:#4d4d4d"><path
       d="m 7.5,61.426 0,-7.727 c 0,-3.523 1.199,-4.273 3.227,-4.273 2.476,0 5.25,0 6.449,0.074 0.449,1.273 1.648,2.176 3.148,2.176 1.801,0 3.301,-1.5 3.301,-3.301 0,-1.801 -1.5,-3.301 -3.301,-3.301 -1.426,0 -2.625,0.899 -3.074,2.176 -1.273,0 -4.051,-0.074 -6.449,-0.074 -5.551,0 -5.551,4.875 -5.551,6.523 l 0,7.649 c -1.949,0.449 -3.449,2.25 -3.449,4.351 0,2.477 2.023,4.426 4.426,4.426 2.398,0 4.425,-2.023 4.425,-4.426 0.075,-2.023 -1.277,-3.75 -3.152,-4.273 z m -1.273,6.449 c -1.2,0 -2.176,-0.977 -2.176,-2.176 0,-1.199 0.976,-2.176 2.176,-2.176 1.199,0 2.175,0.977 2.175,2.176 0.075,1.199 -0.976,2.176 -2.175,2.176 z"
       style="fill:#4d4d4d;fill-rule:nonzero"
       id="path22"
       inkscape:connector-curvature="0" /></g><g
     transform="matrix(3.7178521,0,0,3.7178521,-16.061689,-7.2519156)"
     id="g24"
     style="fill:#4d4d4d;fill-opacity:1"><path
       d="m 54,34.5 c 1.273,0 2.398,-0.75 2.926,-1.801 1.273,0 3.523,0 5.476,0 5.102,0 5.102,-4.5 5.102,-6 l 0,-16.574 c 1.801,-0.449 3.148,-2.102 3.148,-4.051 0,-2.25 -1.875,-4.125 -4.125,-4.125 -2.25,0 -4.125,1.875 -4.125,4.125 0,1.875 1.2,3.449 2.926,3.977 l 0,16.648 c 0,3.149 -0.976,3.75 -2.851,3.75 -1.875,0 -3.899,0 -5.176,0 -0.301,-1.5 -1.649,-2.625 -3.227,-2.625 -1.801,0 -3.301,1.5 -3.301,3.301 C 50.625,33 52.125,34.5 54,34.5 Z M 64.574,6.148 c 0,-1.05 0.824,-1.875 1.875,-1.875 1.051,0 1.875,0.825 1.875,1.875 0,1.051 -0.824,1.875 -1.875,1.875 -0.972,0 -1.875,-0.824 -1.875,-1.875 z"
       style="fill:#4d4d4d;fill-rule:nonzero;fill-opacity:1"
       id="path26"
       inkscape:connector-curvature="0" /></g><g
     transform="matrix(3.255711,0,0,3.7178521,7.403079,17.998586)"
     id="g28"
     style="fill:#4d4d4d"><path
       d="m 31.051,25.648 c -2.625,0 -4.727,2.102 -4.727,4.727 l 0,19.199 c 0,2.625 2.102,4.727 4.727,4.727 l 12.148,0 c 2.625,0 4.727,-2.102 4.727,-4.727 l 0,-19.199 c 0,-2.625 -2.102,-4.727 -4.727,-4.727 l -12.148,0 z"
       style="fill:#4d4d4d;fill-rule:nonzero"
       id="path30"
       inkscape:connector-curvature="0" /></g><g
     transform="matrix(3.7178521,0,0,3.7178521,-6.700805,17.998586)"
     id="g32"
     style="fill:#4d4d4d"><path
       d="m 26.324,13.727 c 2.024,0 3.75,-1.352 4.274,-3.227 l 7.5,0 c 0.824,0 1.574,0 1.875,0.301 0.148,0.148 0.375,0.523 0.375,1.5 0,1.351 0,3.148 -0.075,4.574 -1.199,0.523 -2.101,1.648 -2.101,3.074 0,1.801 1.5,3.301 3.301,3.301 1.8,0 3.3,-1.5 3.3,-3.301 0,-1.5 -0.976,-2.699 -2.324,-3.148 0,-1.426 0.074,-3.149 0.074,-4.5 0,-1.426 -0.3,-2.477 -0.976,-3.074 C 40.57,8.25 39.297,8.328 38.098,8.328 l -7.426,0 C 30.223,6.379 28.422,4.953 26.32,4.953 c -2.476,0 -4.425,2.024 -4.425,4.426 0.003,2.32 1.957,4.348 4.429,4.348 z m 0,-6.676 c 1.199,0 2.176,0.976 2.176,2.176 0,1.199 -0.977,2.175 -2.176,2.175 -1.199,0 -2.176,-0.976 -2.176,-2.175 0,-1.125 0.977,-2.176 2.176,-2.176 z"
       style="fill:#4d4d4d;fill-rule:nonzero"
       id="path34"
       inkscape:connector-curvature="0" /></g><g
     transform="matrix(3.7178521,0,0,3.7178521,-6.700805,17.998586)"
     id="g36"
     style="fill:#4d4d4d"><path
       d="m 32.699,56.773 c -1.351,0 -2.551,0.825 -3,1.95 l -8.324,0 c -1.574,0 -4.875,0 -4.875,4.425 0,0.524 0,1.051 0,1.5 -1.949,0.45 -3.375,2.25 -3.375,4.274 0,2.476 2.023,4.426 4.426,4.426 2.398,0 4.426,-2.024 4.426,-4.426 0,-2.024 -1.352,-3.75 -3.227,-4.274 0,-0.449 -0.074,-0.976 -0.074,-1.5 0,-2.023 0.676,-2.175 2.625,-2.175 l 8.176,0 c 0.375,1.425 1.648,2.398 3.148,2.398 1.801,0 3.301,-1.5 3.301,-3.301 C 36,58.273 34.5,56.773 32.699,56.773 Z M 19.727,69 c 0,1.199 -0.977,2.176 -2.176,2.176 -1.199,0 -2.176,-0.977 -2.176,-2.176 0,-1.199 0.977,-2.176 2.176,-2.176 1.199,0 2.176,0.903 2.176,2.176 z"
       style="fill:#4d4d4d;fill-rule:nonzero"
       id="path38"
       inkscape:connector-curvature="0" /></g><g
     transform="matrix(3.7178521,0,0,3.7178521,-6.700805,17.998586)"
     id="g40"
     style="fill:#4d4d4d"><path
       d="m 54,64.648 c 0,-0.449 0,-0.976 0,-1.5 0,-4.425 -3.301,-4.425 -4.875,-4.425 l -4.574,0 c -0.524,-1.2 -1.649,-1.95 -3,-1.95 -1.801,0 -3.301,1.5 -3.301,3.301 0,1.801 1.5,3.301 3.301,3.301 1.5,0 2.773,-1.051 3.148,-2.398 l 4.426,0 c 1.949,0 2.625,0.148 2.625,2.175 0,0.524 0,1.051 -0.074,1.5 -1.875,0.524 -3.227,2.25 -3.227,4.274 0,2.476 2.024,4.426 4.426,4.426 2.477,0 4.426,-2.024 4.426,-4.426 C 57.375,66.898 55.949,65.102 54,64.648 Z m -1.051,6.528 c -1.199,0 -2.176,-0.977 -2.176,-2.176 0,-1.199 0.977,-2.25 2.176,-2.25 1.199,0 2.176,0.977 2.176,2.176 0,1.199 -0.977,2.25 -2.176,2.25 z"
       style="fill:#4d4d4d;fill-rule:nonzero"
       id="path42"
       inkscape:connector-curvature="0" /></g><g
     transform="matrix(0.66171623,0,0,0.900933,10.309128,-11.708)"
     id="g46"><path
       d="m 162.589,177.026 0,-20.834 52.084,0 0,18.229 -29.08,48.959 0,0.868 30.816,0 0,20.833 -55.556,0 0,-18.403 29.08,-48.784 0,-0.868 -27.344,0 z"
       style="fill:#000000;fill-rule:nonzero"
       id="path48"
       inkscape:connector-curvature="0" /><path
       d="m 269.186,154.803 c 6.713,0 12.443,1.635 17.188,4.905 4.745,3.27 8.131,7.451 10.156,12.543 0.984,2.489 1.722,5.411 2.214,8.768 0.492,3.356 0.781,6.322 0.868,8.897 0.087,2.575 0.13,6.149 0.13,10.721 l 0,10.416 -38.802,0 c 0,4.746 0.434,8.073 1.302,9.983 1.505,3.067 4.398,4.601 8.681,4.601 6.307,0 14.988,-0.579 26.041,-1.736 l 0,20.746 c -10.532,1.215 -19.213,1.823 -26.041,1.823 -7.176,0 -13.224,-1.678 -18.143,-5.035 -4.919,-3.356 -8.478,-7.725 -10.677,-13.107 -1.505,-3.646 -2.459,-7.552 -2.864,-11.719 -0.406,-4.167 -0.608,-9.491 -0.608,-15.972 0,-6.655 0.188,-12.139 0.564,-16.45 0.376,-4.311 1.259,-8.29 2.648,-11.936 1.909,-5.15 5.251,-9.346 10.026,-12.586 4.774,-3.241 10.547,-4.862 17.317,-4.862 z m 0,20.834 c -0.983,0 -1.88,0.101 -2.691,0.304 -0.81,0.202 -1.49,0.578 -2.039,1.128 -0.55,0.55 -1.028,1.042 -1.433,1.476 -0.405,0.434 -0.738,1.157 -0.998,2.17 -0.26,1.013 -0.463,1.808 -0.608,2.387 -0.144,0.579 -0.26,1.548 -0.347,2.908 -0.087,1.36 -0.13,2.315 -0.13,2.865 0,0.549 -0.029,1.577 -0.087,3.081 l 16.667,0 c -0.116,-5.96 -0.579,-9.896 -1.389,-11.805 -1.158,-3.01 -3.472,-4.514 -6.945,-4.514 z"
       style="fill:#000000;fill-rule:nonzero"
       id="path50"
       inkscape:connector-curvature="0" /><path
       d="m 361.895,175.637 c -4.803,0 -8.652,1.533 -11.545,4.6 -1.447,1.621 -2.619,3.4 -3.516,5.339 -0.897,1.939 -1.519,4.109 -1.866,6.51 -0.348,2.402 -0.565,4.341 -0.651,5.816 -0.087,1.476 -0.131,3.458 -0.131,5.947 l 0,41.232 -22.222,0 0,-88.889 22.222,0 0,9.462 0.868,0 c 2.315,-3.53 4.847,-6.221 7.596,-8.073 2.749,-1.852 6.12,-2.778 10.113,-2.778 4.051,0 8.97,0.377 14.757,1.129 l 0,20.833 c -6.135,-0.752 -11.343,-1.128 -15.625,-1.128 z"
       style="fill:#000000;fill-rule:nonzero"
       id="path52"
       inkscape:connector-curvature="0" /><path
       d="m 430.298,154.803 c 5.381,0 10.199,1.23 14.453,3.69 4.253,2.459 7.74,5.859 10.46,10.199 2.257,3.704 3.761,8.088 4.514,13.151 0.752,5.064 1.128,11.328 1.128,18.794 0,7.465 -0.376,13.729 -1.128,18.793 -0.753,5.064 -2.257,9.447 -4.514,13.151 -2.72,4.34 -6.207,7.74 -10.46,10.2 -4.254,2.459 -9.072,3.689 -14.453,3.689 -5.382,0 -10.2,-1.23 -14.454,-3.689 -4.253,-2.46 -7.74,-5.86 -10.46,-10.2 -2.257,-3.704 -3.761,-8.087 -4.514,-13.151 -0.752,-5.064 -1.128,-11.328 -1.128,-18.793 0,-7.466 0.376,-13.73 1.128,-18.794 0.753,-5.063 2.257,-9.447 4.514,-13.151 2.72,-4.34 6.207,-7.74 10.46,-10.199 4.254,-2.46 9.072,-3.69 14.454,-3.69 z m 0,20.834 c -2.952,0 -5.151,1.996 -6.598,5.989 -1.157,3.183 -1.736,9.52 -1.736,19.011 0,9.49 0.579,15.827 1.736,19.01 1.447,3.993 3.646,5.99 6.598,5.99 2.951,0 5.15,-1.997 6.597,-5.99 1.157,-3.183 1.736,-9.52 1.736,-19.01 0,-9.491 -0.579,-15.828 -1.736,-19.011 -1.447,-3.993 -3.646,-5.989 -6.597,-5.989 z"
       style="fill:#000000;fill-rule:nonzero"
       id="path54"
       inkscape:connector-curvature="0" /><rect
       x="471.96399"
       y="245.08099"
       width="77.778"
       height="20.833"
       style="fill:#000000;fill-rule:nonzero"
       id="rect56" /><path
       d="m 581.773,154.803 c 6.713,0 11.545,2.344 14.497,7.032 l 0.694,0 0,-38.976 22.222,0 0,122.222 -22.222,0 0,-5.642 -0.694,0 c -2.952,4.687 -7.784,7.031 -14.497,7.031 -4.398,0 -8.29,-1.808 -11.675,-5.425 -3.386,-3.617 -5.859,-8.666 -7.422,-15.148 -1.215,-5.208 -1.823,-13.628 -1.823,-25.26 0,-11.632 0.608,-20.052 1.823,-25.261 1.563,-6.481 4.036,-11.53 7.422,-15.147 3.385,-3.617 7.277,-5.426 11.675,-5.426 z m 8.247,20.834 c -1.505,0 -2.778,0.882 -3.82,2.647 -1.041,1.765 -1.794,3.979 -2.257,6.641 -0.578,3.125 -0.868,8.362 -0.868,15.712 0,7.349 0.29,12.587 0.868,15.712 0.463,2.662 1.216,4.875 2.257,6.64 1.042,1.765 2.315,2.648 3.82,2.648 1.504,0 2.778,-0.883 3.819,-2.648 1.042,-1.765 1.794,-3.978 2.257,-6.64 0.579,-3.125 0.868,-8.363 0.868,-15.712 0,-7.35 -0.289,-12.587 -0.868,-15.712 -0.463,-2.662 -1.215,-4.876 -2.257,-6.641 -1.041,-1.765 -2.315,-2.647 -3.819,-2.647 z"
       style="fill:#000000;fill-rule:nonzero"
       id="path58"
       inkscape:connector-curvature="0" /><path
       d="m 677.52,208.536 -5.903,0 c -2.836,0 -4.876,0.825 -6.12,2.474 -1.244,1.649 -1.866,4.239 -1.866,7.769 0,1.968 0.463,3.603 1.389,4.905 0.926,1.302 2.257,1.953 3.993,1.953 1.967,0 3.573,-0.492 4.818,-1.476 1.244,-0.984 2.112,-2.387 2.604,-4.21 0.492,-1.823 0.795,-3.371 0.911,-4.644 0.116,-1.273 0.174,-2.865 0.174,-4.774 l 0,-1.997 z m -2.778,-53.733 c 4.977,0 9.346,0.767 13.108,2.301 3.761,1.533 6.857,4.441 9.288,8.724 1.736,3.067 2.604,7.812 2.604,14.236 l 0,65.017 -22.222,0 0,-4.601 -0.868,0 c -3.241,3.994 -7.35,5.99 -12.327,5.99 -6.134,0 -11.487,-2.633 -16.059,-7.899 -4.571,-5.266 -6.857,-11.806 -6.857,-19.618 0,-8.507 2.546,-15.51 7.639,-21.007 1.851,-1.968 3.833,-3.574 5.946,-4.818 2.112,-1.244 4.282,-2.098 6.51,-2.561 2.228,-0.463 4.022,-0.752 5.382,-0.868 1.36,-0.115 2.995,-0.173 4.905,-0.173 l 5.729,0 0,-9.028 c 0,-1.158 -0.492,-2.243 -1.476,-3.255 -0.984,-1.013 -2.257,-1.519 -3.819,-1.519 -5.324,0 -12.819,0.549 -22.483,1.649 l 0,-20.92 c 9.549,-1.1 17.882,-1.65 25,-1.65 z"
       style="fill:#000000;fill-rule:nonzero"
       id="path60"
       inkscape:connector-curvature="0" /><path
       d="m 753.041,215.307 c 4.861,-18.403 8.883,-38.108 12.066,-59.115 l 22.222,0 c -2.489,15.567 -4.948,28.964 -7.379,40.191 -2.43,11.227 -5.845,23.756 -10.243,37.587 -1.215,3.82 -2.228,6.843 -3.038,9.071 -0.81,2.228 -1.852,4.789 -3.125,7.683 -1.273,2.893 -2.676,5.309 -4.21,7.248 -1.534,1.938 -3.226,3.515 -5.078,4.731 -2.257,1.389 -4.239,2.445 -5.946,3.168 -1.707,0.724 -4.543,1.375 -8.507,1.953 -3.964,0.579 -8.985,0.868 -15.061,0.868 l 0,-20.833 c 4.225,0 7.422,-0.13 9.592,-0.391 2.17,-0.26 4.008,-0.926 5.512,-1.996 1.505,-1.071 2.604,-2.315 3.299,-3.733 0.694,-1.418 1.62,-3.66 2.778,-6.727 0.173,-0.463 0.289,-0.81 0.347,-1.042 l -8.594,0 c -4.456,-11.285 -8.203,-23.119 -11.241,-35.503 -3.039,-12.385 -5.946,-26.476 -8.724,-42.275 l 22.309,0 c 2.893,21.123 6.944,40.828 12.153,59.115 l 0.868,0 z"
       style="fill:#000000;fill-rule:nonzero"
       id="path62"
       inkscape:connector-curvature="0" /></g><g
     transform="matrix(0.66171623,0,0,0.900933,133.97652,-11.708)"
     id="g64"
     style="fill:#4d4d4d;fill-opacity:1"><path
       d="m 663.634,111.487 9.114,18.316 c -21.296,9.723 -31.944,27.807 -31.944,54.254 0,26.447 10.648,44.531 31.944,54.253 l -9.114,18.316 c -14.236,-6.365 -25.304,-15.683 -33.203,-27.951 -7.9,-12.269 -11.849,-27.141 -11.849,-44.618 0,-17.477 3.949,-32.35 11.849,-44.618 7.899,-12.269 18.967,-21.586 33.203,-27.952 z"
       style="fill:#4d4d4d;fill-rule:nonzero;fill-opacity:1"
       id="path66"
       inkscape:connector-curvature="0" /><path
       d="m 696.186,200.637 c 0,-6.482 0.217,-11.806 0.651,-15.972 0.434,-4.167 1.461,-8.073 3.081,-11.719 5.267,-12.095 15.076,-18.143 29.427,-18.143 6.54,0 14.642,0.521 24.306,1.563 l 0,20.833 c -9.78,-1.041 -17.882,-1.562 -24.306,-1.562 -2.488,0 -4.456,0.665 -5.902,1.996 -1.447,1.331 -2.633,3.357 -3.559,6.077 -0.984,3.009 -1.476,8.651 -1.476,16.927 0,8.275 0.492,13.918 1.476,16.927 0.926,2.72 2.112,4.745 3.559,6.076 1.446,1.331 3.414,1.997 5.902,1.997 6.771,0 15.163,-0.753 25.174,-2.257 l 0,20.833 c -9.954,1.505 -18.345,2.257 -25.174,2.257 -14.351,0 -24.16,-6.047 -29.427,-18.142 -1.62,-3.646 -2.647,-7.552 -3.081,-11.719 -0.434,-4.167 -0.651,-9.491 -0.651,-15.972 z"
       style="fill:#4d4d4d;fill-rule:nonzero;fill-opacity:1"
       id="path68"
       inkscape:connector-curvature="0" /><path
       d="m 812.852,208.536 -5.902,0 c -2.836,0 -4.876,0.825 -6.12,2.474 -1.244,1.649 -1.866,4.239 -1.866,7.769 0,1.968 0.463,3.603 1.388,4.905 0.926,1.302 2.257,1.953 3.993,1.953 1.968,0 3.574,-0.492 4.818,-1.476 1.244,-0.984 2.112,-2.387 2.604,-4.21 0.492,-1.823 0.796,-3.371 0.912,-4.644 0.116,-1.273 0.173,-2.865 0.173,-4.774 l 0,-1.997 z m -2.777,-53.733 c 4.977,0 9.346,0.767 13.107,2.301 3.762,1.533 6.858,4.441 9.288,8.724 1.737,3.067 2.605,7.812 2.605,14.236 l 0,65.017 -22.223,0 0,-4.601 -0.868,0 c -3.24,3.994 -7.349,5.99 -12.326,5.99 -6.134,0 -11.487,-2.633 -16.059,-7.899 -4.572,-5.266 -6.858,-11.806 -6.858,-19.618 0,-8.507 2.547,-15.51 7.639,-21.007 1.852,-1.968 3.834,-3.574 5.946,-4.818 2.113,-1.244 4.283,-2.098 6.511,-2.561 2.228,-0.463 4.022,-0.752 5.382,-0.868 1.36,-0.115 2.995,-0.173 4.904,-0.173 l 5.729,0 0,-9.028 c 0,-1.158 -0.491,-2.243 -1.475,-3.255 -0.984,-1.013 -2.257,-1.519 -3.82,-1.519 -5.324,0 -12.818,0.549 -22.482,1.649 l 0,-20.92 c 9.548,-1.1 17.882,-1.65 25,-1.65 z"
       style="fill:#4d4d4d;fill-rule:nonzero;fill-opacity:1"
       id="path70"
       inkscape:connector-curvature="0" /><path
       d="m 882.297,154.803 c 4.282,0 7.552,2.257 9.809,6.771 4.167,-4.514 9.172,-6.771 15.017,-6.771 6.366,0 11.401,2.489 15.104,7.466 1.389,1.909 2.431,4.022 3.125,6.336 0.695,2.315 1.1,4.297 1.216,5.947 0.115,1.649 0.173,4.036 0.173,7.161 l 0,63.368 -22.222,0 0,-63.368 c 0,-2.43 -0.434,-4.022 -1.302,-4.774 -0.984,-0.868 -2.402,-1.302 -4.253,-1.302 -1.852,0 -3.27,0.434 -4.254,1.302 -0.868,0.752 -1.302,2.344 -1.302,4.774 l 0,63.368 -11.111,0 0,-63.368 c 0,-2.43 -0.434,-4.022 -1.302,-4.774 -0.984,-0.868 -2.402,-1.302 -4.254,-1.302 -1.852,0 -3.269,0.434 -4.253,1.302 -0.868,0.752 -1.302,2.344 -1.302,4.774 l 0,63.368 -22.222,0 0,-88.889 22.222,0 0,3.038 0.521,0 c 2.951,-2.951 6.481,-4.427 10.59,-4.427 z"
       style="fill:#4d4d4d;fill-rule:nonzero;fill-opacity:1"
       id="path72"
       inkscape:connector-curvature="0" /><path
       d="m 978.043,154.803 c 4.399,0 8.29,1.809 11.676,5.426 3.385,3.617 5.859,8.666 7.422,15.147 1.215,5.209 1.823,13.629 1.823,25.261 0,11.632 -0.608,20.052 -1.823,25.26 -1.563,6.482 -4.037,11.531 -7.422,15.148 -3.386,3.617 -7.277,5.425 -11.676,5.425 -6.713,0 -11.545,-2.344 -14.496,-7.031 l -0.695,0 0,38.976 -22.222,0 0,-122.223 22.222,0 0,5.643 0.695,0 c 2.951,-4.688 7.783,-7.032 14.496,-7.032 z m -8.246,20.834 c -1.505,0 -2.778,0.882 -3.82,2.647 -1.041,1.765 -1.794,3.979 -2.257,6.641 -0.578,3.125 -0.868,8.362 -0.868,15.712 0,7.349 0.29,12.587 0.868,15.712 0.463,2.662 1.216,4.875 2.257,6.64 1.042,1.765 2.315,2.648 3.82,2.648 1.505,0 2.778,-0.883 3.819,-2.648 1.042,-1.765 1.794,-3.978 2.257,-6.64 0.579,-3.125 0.868,-8.363 0.868,-15.712 0,-7.35 -0.289,-12.587 -0.868,-15.712 -0.463,-2.662 -1.215,-4.876 -2.257,-6.641 -1.041,-1.765 -2.314,-2.647 -3.819,-2.647 z"
       style="fill:#4d4d4d;fill-rule:nonzero;fill-opacity:1"
       id="path74"
       inkscape:connector-curvature="0" /><path
       d="m 1031.69,111.487 c 14.23,6.366 25.3,15.683 33.2,27.952 7.9,12.268 11.85,27.141 11.85,44.618 0,17.477 -3.95,32.349 -11.85,44.618 -7.9,12.268 -18.97,21.586 -33.2,27.951 l -9.11,-18.316 c 21.29,-9.722 31.94,-27.806 31.94,-54.253 0,-26.447 -10.65,-44.531 -31.94,-54.254 l 9.11,-18.316 z"
       style="fill:#4d4d4d;fill-rule:nonzero;fill-opacity:1"
       id="path76"
       inkscape:connector-curvature="0" /></g><g
     id="g78"
     transform="matrix(1.0927,0.36467,-0.685441,2.05387,-1841.376,-2133.06)"><rect
       id="rect80"
       style="fill:#000000"
       height="44.236"
       width="5.8270001"
       y="673.84003"
       x="2386.96" /></g><flowRoot
     xml:space="preserve"
     id="flowRoot3478"
     style="font-style:normal;font-variant:normal;font-weight:normal;font-stretch:normal;font-size:40px;line-height:125%;font-family:Ubuntu;-inkscape-font-specification:'Ubuntu, Normal';text-align:start;letter-spacing:0px;word-spacing:0px;writing-mode:lr-tb;text-anchor:start;fill:#000000;fill-opacity:1;stroke:none;stroke-width:1px;stroke-linecap:butt;stroke-linejoin:miter;stroke-opacity:1"
     transform="matrix(1.3427194,0,0,1.3427194,30.419314,-62.350247)"><flowRegion
       id="flowRegion3480"><rect
         id="rect3482"
         width="630.53943"
         height="67.889938"
         x="213.8998"
         y="219.39006" /></flowRegion><flowPara
       id="flowPara3484"
       style="font-style:normal;font-variant:normal;font-weight:bold;font-stretch:normal;font-size:39.09975433px;line-height:100%;font-family:'Ubuntu Mono';-inkscape-font-specification:'Ubuntu Mono, Bold';text-align:start;writing-mode:lr-tb;text-anchor:start">https://zeroday.camp</flowPara></flowRoot></svg>