<?xml version="1.0" encoding="UTF-8" standalone="no"?>
<svg
   xmlns:dc="http://purl.org/dc/elements/1.1/"
   xmlns:cc="http://creativecommons.org/ns#"
   xmlns:rdf="http://www.w3.org/1999/02/22-rdf-syntax-ns#"
   xmlns:svg="http://www.w3.org/2000/svg"
   xmlns="http://www.w3.org/2000/svg"
   xmlns:sodipodi="http://sodipodi.sourceforge.net/DTD/sodipodi-0.dtd"
   xmlns:inkscape="http://www.inkscape.org/namespaces/inkscape"
   width="100%"
   height="100%"
   viewBox="0 0 847 291"
   version="1.1"
   xml:space="preserve"
   style="fill-rule:evenodd;clip-rule:evenodd;stroke-linejoin:round;stroke-miterlimit:1.41421;"
   id="svg2"
   inkscape:version="0.91 r13725"
   sodipodi:docname="zeroday-logo.svg"><metadata
     id="metadata86"><rdf:RDF><cc:Work
         rdf:about=""><dc:format>image/svg+xml</dc:format><dc:type
           rdf:resource="http://purl.org/dc/dcmitype/StillImage" /><dc:title></dc:title></cc:Work></rdf:RDF></metadata><defs
     id="defs84" /><sodipodi:namedview
     pagecolor="#ffffff"
     bordercolor="#666666"
     borderopacity="1"
     objecttolerance="10"
     gridtolerance="10"
     guidetolerance="10"
     inkscape:pageopacity="0"
     inkscape:pageshadow="2"
     inkscape:window-width="1920"
     inkscape:window-height="1056"
     id="namedview82"
     showgrid="false"
     inkscape:zoom="0.38016529"
     inkscape:cx="78.913043"
     inkscape:cy="145.5"
     inkscape:window-x="0"
     inkscape:window-y="24"
     inkscape:window-maximized="1"
     inkscape:current-layer="svg2" /><g
     transform="matrix(1,0,0,1,-2059.38,-674.46)"
     id="g4"><g
       transform="matrix(1.13741,0,0,1.13741,472.248,-841.953)"
       id="g6"><g
         transform="matrix(3.2687,0,0,3.2687,1389.5,1349.04)"
         id="g8"><path
           d="M6.375,12.074C7.273,12.074 8.023,11.848 8.773,11.398C11.25,13.125 19.648,19.125 21,19.949C22.199,20.699 23.25,21.375 24.824,21.449C25.574,21.449 27.223,21.523 29.773,21.523C30.297,22.574 31.422,23.324 32.699,23.324C34.5,23.324 36,21.824 36,20.023C36,18.223 34.5,16.723 32.699,16.723C31.125,16.723 29.773,17.848 29.473,19.348C27.148,19.348 25.574,19.348 24.898,19.273C23.922,19.273 23.324,18.898 22.199,18.148C21,17.398 13.051,11.699 10.348,9.824C10.648,9.223 10.871,8.473 10.871,7.723C10.871,5.246 8.848,3.297 6.445,3.297C4.047,3.297 2.02,5.32 2.02,7.723C2.02,10.121 3.898,12.074 6.375,12.074ZM6.375,5.398C7.574,5.398 8.551,6.375 8.551,7.574C8.551,8.773 7.574,9.75 6.375,9.75C5.176,9.75 4.199,8.773 4.199,7.574C4.199,6.375 5.176,5.398 6.375,5.398Z"
           style="fill:rgb(230,26,26);fill-rule:nonzero;"
           id="path10" /></g><g
         transform="matrix(3.2687,0,0,3.2687,1389.5,1349.04)"
         id="g12"><path
           d="M10.801,32.324L17.402,32.324C17.852,33.598 19.051,34.5 20.477,34.5C22.277,34.5 23.777,33 23.777,31.199C23.777,29.398 22.277,27.898 20.477,27.898C19.051,27.898 17.852,28.797 17.402,30.074L10.801,30.074C10.277,28.199 8.551,26.773 6.527,26.773C4.051,26.773 2.102,28.797 2.102,31.199C2.102,33.598 4.125,35.625 6.527,35.625C8.625,35.699 10.352,34.273 10.801,32.324ZM4.352,31.199C4.352,30 5.328,29.023 6.527,29.023C7.727,29.023 8.703,30 8.703,31.199C8.703,32.398 7.727,33.375 6.527,33.375C5.324,33.449 4.352,32.398 4.352,31.199Z"
           style="fill:rgb(230,26,26);fill-rule:nonzero;"
           id="path14" /></g><g
         transform="matrix(3.2687,0,0,3.2687,1389.5,1349.04)"
         id="g16"><path
           d="M11.773,44.176C13.797,44.176 15.598,42.75 16.047,40.875L17.398,40.875C17.848,42.148 19.047,43.051 20.473,43.051C22.273,43.051 23.773,41.551 23.773,39.75C23.773,37.949 22.273,36.449 20.473,36.449C19.047,36.449 17.848,37.348 17.398,38.625L16.047,38.625C15.523,36.75 13.797,35.324 11.773,35.324C9.297,35.324 7.348,37.348 7.348,39.75C7.348,42.148 9.301,44.176 11.773,44.176ZM11.773,37.5C12.973,37.5 13.949,38.477 13.949,39.676C13.949,40.875 12.973,41.852 11.773,41.852C10.574,41.852 9.598,40.875 9.598,39.676C9.598,38.477 10.574,37.5 11.773,37.5Z"
           style="fill:rgb(230,26,26);fill-rule:nonzero;"
           id="path18" /></g><g
         transform="matrix(3.2687,0,0,3.2687,1389.5,1349.04)"
         id="g20"><path
           d="M7.5,61.426L7.5,53.699C7.5,50.176 8.699,49.426 10.727,49.426C13.203,49.426 15.977,49.426 17.176,49.5C17.625,50.773 18.824,51.676 20.324,51.676C22.125,51.676 23.625,50.176 23.625,48.375C23.625,46.574 22.125,45.074 20.324,45.074C18.898,45.074 17.699,45.973 17.25,47.25C15.977,47.25 13.199,47.176 10.801,47.176C5.25,47.176 5.25,52.051 5.25,53.699L5.25,61.348C3.301,61.797 1.801,63.598 1.801,65.699C1.801,68.176 3.824,70.125 6.227,70.125C8.625,70.125 10.652,68.102 10.652,65.699C10.727,63.676 9.375,61.949 7.5,61.426ZM6.227,67.875C5.027,67.875 4.051,66.898 4.051,65.699C4.051,64.5 5.027,63.523 6.227,63.523C7.426,63.523 8.402,64.5 8.402,65.699C8.477,66.898 7.426,67.875 6.227,67.875Z"
           style="fill:rgb(230,26,26);fill-rule:nonzero;"
           id="path22" /></g><g
         transform="matrix(3.2687,0,0,3.2687,1381.27,1326.84)"
         id="g24"><path
           d="M54,34.5C55.273,34.5 56.398,33.75 56.926,32.699C58.199,32.699 60.449,32.699 62.402,32.699C67.504,32.699 67.504,28.199 67.504,26.699L67.504,10.125C69.305,9.676 70.652,8.023 70.652,6.074C70.652,3.824 68.777,1.949 66.527,1.949C64.277,1.949 62.402,3.824 62.402,6.074C62.402,7.949 63.602,9.523 65.328,10.051L65.328,26.699C65.328,29.848 64.352,30.449 62.477,30.449C60.602,30.449 58.578,30.449 57.301,30.449C57,28.949 55.652,27.824 54.074,27.824C52.273,27.824 50.773,29.324 50.773,31.125C50.625,33 52.125,34.5 54,34.5ZM64.574,6.148C64.574,5.098 65.398,4.273 66.449,4.273C67.5,4.273 68.324,5.098 68.324,6.148C68.324,7.199 67.5,8.023 66.449,8.023C65.477,8.023 64.574,7.199 64.574,6.148Z"
           style="fill:rgb(230,26,26);fill-rule:nonzero;"
           id="path26" /></g><g
         transform="matrix(2.86239,0,0,3.2687,1401.9,1349.04)"
         id="g28"><path
           d="M31.051,25.648C28.426,25.648 26.324,27.75 26.324,30.375L26.324,49.574C26.324,52.199 28.426,54.301 31.051,54.301L43.199,54.301C45.824,54.301 47.926,52.199 47.926,49.574L47.926,30.375C47.926,27.75 45.824,25.648 43.199,25.648L31.051,25.648Z"
           style="fill:rgb(230,26,26);fill-rule:nonzero;"
           id="path30" /></g><g
         transform="matrix(3.2687,0,0,3.2687,1389.5,1349.04)"
         id="g32"><path
           d="M26.324,13.727C28.348,13.727 30.074,12.375 30.598,10.5L38.098,10.5C38.922,10.5 39.672,10.5 39.973,10.801C40.121,10.949 40.348,11.324 40.348,12.301C40.348,13.652 40.348,15.449 40.273,16.875C39.074,17.398 38.172,18.523 38.172,19.949C38.172,21.75 39.672,23.25 41.473,23.25C43.273,23.25 44.773,21.75 44.773,19.949C44.773,18.449 43.797,17.25 42.449,16.801C42.449,15.375 42.523,13.652 42.523,12.301C42.523,10.875 42.223,9.824 41.547,9.227C40.57,8.25 39.297,8.328 38.098,8.328L30.672,8.328C30.223,6.379 28.422,4.953 26.32,4.953C23.844,4.953 21.895,6.977 21.895,9.379C21.898,11.699 23.852,13.727 26.324,13.727ZM26.324,7.051C27.523,7.051 28.5,8.027 28.5,9.227C28.5,10.426 27.523,11.402 26.324,11.402C25.125,11.402 24.148,10.426 24.148,9.227C24.148,8.102 25.125,7.051 26.324,7.051Z"
           style="fill:rgb(230,26,26);fill-rule:nonzero;"
           id="path34" /></g><g
         transform="matrix(3.2687,0,0,3.2687,1389.5,1349.04)"
         id="g36"><path
           d="M32.699,56.773C31.348,56.773 30.148,57.598 29.699,58.723L21.375,58.723C19.801,58.723 16.5,58.723 16.5,63.148C16.5,63.672 16.5,64.199 16.5,64.648C14.551,65.098 13.125,66.898 13.125,68.922C13.125,71.398 15.148,73.348 17.551,73.348C19.949,73.348 21.977,71.324 21.977,68.922C21.977,66.898 20.625,65.172 18.75,64.648C18.75,64.199 18.676,63.672 18.676,63.148C18.676,61.125 19.352,60.973 21.301,60.973L29.477,60.973C29.852,62.398 31.125,63.371 32.625,63.371C34.426,63.371 35.926,61.871 35.926,60.07C36,58.273 34.5,56.773 32.699,56.773ZM19.727,69C19.727,70.199 18.75,71.176 17.551,71.176C16.352,71.176 15.375,70.199 15.375,69C15.375,67.801 16.352,66.824 17.551,66.824C18.75,66.824 19.727,67.727 19.727,69Z"
           style="fill:rgb(230,26,26);fill-rule:nonzero;"
           id="path38" /></g><g
         transform="matrix(3.2687,0,0,3.2687,1389.5,1349.04)"
         id="g40"><path
           d="M54,64.648C54,64.199 54,63.672 54,63.148C54,58.723 50.699,58.723 49.125,58.723L44.551,58.723C44.027,57.523 42.902,56.773 41.551,56.773C39.75,56.773 38.25,58.273 38.25,60.074C38.25,61.875 39.75,63.375 41.551,63.375C43.051,63.375 44.324,62.324 44.699,60.977L49.125,60.977C51.074,60.977 51.75,61.125 51.75,63.152C51.75,63.676 51.75,64.203 51.676,64.652C49.801,65.176 48.449,66.902 48.449,68.926C48.449,71.402 50.473,73.352 52.875,73.352C55.352,73.352 57.301,71.328 57.301,68.926C57.375,66.898 55.949,65.102 54,64.648ZM52.949,71.176C51.75,71.176 50.773,70.199 50.773,69C50.773,67.801 51.75,66.75 52.949,66.75C54.148,66.75 55.125,67.727 55.125,68.926C55.125,70.125 54.148,71.176 52.949,71.176Z"
           style="fill:rgb(230,26,26);fill-rule:nonzero;"
           id="path42" /></g></g><g
       transform="matrix(0.931996,0,0,0.900933,2032.22,662.752)"
       id="g44"><g
         transform="matrix(0.709999,0,0,1,40.2031,0)"
         id="g46"><path
           d="M162.589,177.026L162.589,156.192L214.673,156.192L214.673,174.421L185.593,223.38L185.593,224.248L216.409,224.248L216.409,245.081L160.853,245.081L160.853,226.678L189.933,177.894L189.933,177.026L162.589,177.026Z"
           style="fill:black;fill-rule:nonzero;"
           id="path48" /><path
           d="M269.186,154.803C275.899,154.803 281.629,156.438 286.374,159.708C291.119,162.978 294.505,167.159 296.53,172.251C297.514,174.74 298.252,177.662 298.744,181.019C299.236,184.375 299.525,187.341 299.612,189.916C299.699,192.491 299.742,196.065 299.742,200.637L299.742,211.053L260.94,211.053C260.94,215.799 261.374,219.126 262.242,221.036C263.747,224.103 266.64,225.637 270.923,225.637C277.23,225.637 285.911,225.058 296.964,223.901L296.964,244.647C286.432,245.862 277.751,246.47 270.923,246.47C263.747,246.47 257.699,244.792 252.78,241.435C247.861,238.079 244.302,233.71 242.103,228.328C240.598,224.682 239.644,220.776 239.239,216.609C238.833,212.442 238.631,207.118 238.631,200.637C238.631,193.982 238.819,188.498 239.195,184.187C239.571,179.876 240.454,175.897 241.843,172.251C243.752,167.101 247.094,162.905 251.869,159.665C256.643,156.424 262.416,154.803 269.186,154.803ZM269.186,175.637C268.203,175.637 267.306,175.738 266.495,175.941C265.685,176.143 265.005,176.519 264.456,177.069C263.906,177.619 263.428,178.111 263.023,178.545C262.618,178.979 262.285,179.702 262.025,180.715C261.765,181.728 261.562,182.523 261.417,183.102C261.273,183.681 261.157,184.65 261.07,186.01C260.983,187.37 260.94,188.325 260.94,188.875C260.94,189.424 260.911,190.452 260.853,191.956L277.52,191.956C277.404,185.996 276.941,182.06 276.131,180.151C274.973,177.141 272.659,175.637 269.186,175.637Z"
           style="fill:black;fill-rule:nonzero;"
           id="path50" /><path
           d="M361.895,175.637C357.092,175.637 353.243,177.17 350.35,180.237C348.903,181.858 347.731,183.637 346.834,185.576C345.937,187.515 345.315,189.685 344.968,192.086C344.62,194.488 344.403,196.427 344.317,197.902C344.23,199.378 344.186,201.36 344.186,203.849L344.186,245.081L321.964,245.081L321.964,156.192L344.186,156.192L344.186,165.654L345.054,165.654C347.369,162.124 349.901,159.433 352.65,157.581C355.399,155.729 358.77,154.803 362.763,154.803C366.814,154.803 371.733,155.18 377.52,155.932L377.52,176.765C371.385,176.013 366.177,175.637 361.895,175.637Z"
           style="fill:black;fill-rule:nonzero;"
           id="path52" /><path
           d="M430.298,154.803C435.679,154.803 440.497,156.033 444.751,158.493C449.004,160.952 452.491,164.352 455.211,168.692C457.468,172.396 458.972,176.78 459.725,181.843C460.477,186.907 460.853,193.171 460.853,200.637C460.853,208.102 460.477,214.366 459.725,219.43C458.972,224.494 457.468,228.877 455.211,232.581C452.491,236.921 449.004,240.321 444.751,242.781C440.497,245.24 435.679,246.47 430.298,246.47C424.916,246.47 420.098,245.24 415.844,242.781C411.591,240.321 408.104,236.921 405.384,232.581C403.127,228.877 401.623,224.494 400.87,219.43C400.118,214.366 399.742,208.102 399.742,200.637C399.742,193.171 400.118,186.907 400.87,181.843C401.623,176.78 403.127,172.396 405.384,168.692C408.104,164.352 411.591,160.952 415.844,158.493C420.098,156.033 424.916,154.803 430.298,154.803ZM430.298,175.637C427.346,175.637 425.147,177.633 423.7,181.626C422.543,184.809 421.964,191.146 421.964,200.637C421.964,210.127 422.543,216.464 423.7,219.647C425.147,223.64 427.346,225.637 430.298,225.637C433.249,225.637 435.448,223.64 436.895,219.647C438.052,216.464 438.631,210.127 438.631,200.637C438.631,191.146 438.052,184.809 436.895,181.626C435.448,177.633 433.249,175.637 430.298,175.637Z"
           style="fill:black;fill-rule:nonzero;"
           id="path54" /><rect
           x="471.964"
           y="245.081"
           width="77.778"
           height="20.833"
           style="fill:black;fill-rule:nonzero;"
           id="rect56" /><path
           d="M581.773,154.803C588.486,154.803 593.318,157.147 596.27,161.835L596.964,161.835L596.964,122.859L619.186,122.859L619.186,245.081L596.964,245.081L596.964,239.439L596.27,239.439C593.318,244.126 588.486,246.47 581.773,246.47C577.375,246.47 573.483,244.662 570.098,241.045C566.712,237.428 564.239,232.379 562.676,225.897C561.461,220.689 560.853,212.269 560.853,200.637C560.853,189.005 561.461,180.585 562.676,175.376C564.239,168.895 566.712,163.846 570.098,160.229C573.483,156.612 577.375,154.803 581.773,154.803ZM590.02,175.637C588.515,175.637 587.242,176.519 586.2,178.284C585.159,180.049 584.406,182.263 583.943,184.925C583.365,188.05 583.075,193.287 583.075,200.637C583.075,207.986 583.365,213.224 583.943,216.349C584.406,219.011 585.159,221.224 586.2,222.989C587.242,224.754 588.515,225.637 590.02,225.637C591.524,225.637 592.798,224.754 593.839,222.989C594.881,221.224 595.633,219.011 596.096,216.349C596.675,213.224 596.964,207.986 596.964,200.637C596.964,193.287 596.675,188.05 596.096,184.925C595.633,182.263 594.881,180.049 593.839,178.284C592.798,176.519 591.524,175.637 590.02,175.637Z"
           style="fill:black;fill-rule:nonzero;"
           id="path58" /><path
           d="M677.52,208.536L671.617,208.536C668.781,208.536 666.741,209.361 665.497,211.01C664.253,212.659 663.631,215.249 663.631,218.779C663.631,220.747 664.094,222.382 665.02,223.684C665.946,224.986 667.277,225.637 669.013,225.637C670.98,225.637 672.586,225.145 673.831,224.161C675.075,223.177 675.943,221.774 676.435,219.951C676.927,218.128 677.23,216.58 677.346,215.307C677.462,214.034 677.52,212.442 677.52,210.533L677.52,208.536ZM674.742,154.803C679.719,154.803 684.088,155.57 687.85,157.104C691.611,158.637 694.707,161.545 697.138,165.828C698.874,168.895 699.742,173.64 699.742,180.064L699.742,245.081L677.52,245.081L677.52,240.48L676.652,240.48C673.411,244.474 669.302,246.47 664.325,246.47C658.191,246.47 652.838,243.837 648.266,238.571C643.695,233.305 641.409,226.765 641.409,218.953C641.409,210.446 643.955,203.443 649.048,197.946C650.899,195.978 652.881,194.372 654.994,193.128C657.106,191.884 659.276,191.03 661.504,190.567C663.732,190.104 665.526,189.815 666.886,189.699C668.246,189.584 669.881,189.526 671.791,189.526L677.52,189.526L677.52,180.498C677.52,179.34 677.028,178.255 676.044,177.243C675.06,176.23 673.787,175.724 672.225,175.724C666.901,175.724 659.406,176.273 649.742,177.373L649.742,156.453C659.291,155.353 667.624,154.803 674.742,154.803Z"
           style="fill:black;fill-rule:nonzero;"
           id="path60" /><path
           d="M753.041,215.307C757.902,196.904 761.924,177.199 765.107,156.192L787.329,156.192C784.84,171.759 782.381,185.156 779.95,196.383C777.52,207.61 774.105,220.139 769.707,233.97C768.492,237.79 767.479,240.813 766.669,243.041C765.859,245.269 764.817,247.83 763.544,250.724C762.271,253.617 760.868,256.033 759.334,257.972C757.8,259.91 756.108,261.487 754.256,262.703C751.999,264.092 750.017,265.148 748.31,265.871C746.603,266.595 743.767,267.246 739.803,267.824C735.839,268.403 730.818,268.692 724.742,268.692L724.742,247.859C728.967,247.859 732.164,247.729 734.334,247.468C736.504,247.208 738.342,246.542 739.846,245.472C741.351,244.401 742.45,243.157 743.145,241.739C743.839,240.321 744.765,238.079 745.923,235.012C746.096,234.549 746.212,234.202 746.27,233.97L737.676,233.97C733.22,222.685 729.473,210.851 726.435,198.467C723.396,186.082 720.489,171.991 717.711,156.192L740.02,156.192C742.913,177.315 746.964,197.02 752.173,215.307L753.041,215.307Z"
           style="fill:black;fill-rule:nonzero;"
           id="path62" /></g><g
         transform="matrix(0.709999,0,0,1,172.894,0)"
         id="g64"><path
           d="M663.634,111.487L672.748,129.803C651.452,139.526 640.804,157.61 640.804,184.057C640.804,210.504 651.452,228.588 672.748,238.31L663.634,256.626C649.398,250.261 638.33,240.943 630.431,228.675C622.531,216.406 618.582,201.534 618.582,184.057C618.582,166.58 622.531,151.707 630.431,139.439C638.33,127.17 649.398,117.853 663.634,111.487Z"
           style="fill:rgb(230,26,26);fill-rule:nonzero;"
           id="path66" /><path
           d="M696.186,200.637C696.186,194.155 696.403,188.831 696.837,184.665C697.271,180.498 698.298,176.592 699.918,172.946C705.185,160.851 714.994,154.803 729.345,154.803C735.885,154.803 743.987,155.324 753.651,156.366L753.651,177.199C743.871,176.158 735.769,175.637 729.345,175.637C726.857,175.637 724.889,176.302 723.443,177.633C721.996,178.964 720.81,180.99 719.884,183.71C718.9,186.719 718.408,192.361 718.408,200.637C718.408,208.912 718.9,214.555 719.884,217.564C720.81,220.284 721.996,222.309 723.443,223.64C724.889,224.971 726.857,225.637 729.345,225.637C736.116,225.637 744.508,224.884 754.519,223.38L754.519,244.213C744.565,245.718 736.174,246.47 729.345,246.47C714.994,246.47 705.185,240.423 699.918,228.328C698.298,224.682 697.271,220.776 696.837,216.609C696.403,212.442 696.186,207.118 696.186,200.637Z"
           style="fill:rgb(230,26,26);fill-rule:nonzero;"
           id="path68" /><path
           d="M812.852,208.536L806.95,208.536C804.114,208.536 802.074,209.361 800.83,211.01C799.586,212.659 798.964,215.249 798.964,218.779C798.964,220.747 799.427,222.382 800.352,223.684C801.278,224.986 802.609,225.637 804.345,225.637C806.313,225.637 807.919,225.145 809.163,224.161C810.407,223.177 811.275,221.774 811.767,219.951C812.259,218.128 812.563,216.58 812.679,215.307C812.795,214.034 812.852,212.442 812.852,210.533L812.852,208.536ZM810.075,154.803C815.052,154.803 819.421,155.57 823.182,157.104C826.944,158.637 830.04,161.545 832.47,165.828C834.207,168.895 835.075,173.64 835.075,180.064L835.075,245.081L812.852,245.081L812.852,240.48L811.984,240.48C808.744,244.474 804.635,246.47 799.658,246.47C793.524,246.47 788.171,243.837 783.599,238.571C779.027,233.305 776.741,226.765 776.741,218.953C776.741,210.446 779.288,203.443 784.38,197.946C786.232,195.978 788.214,194.372 790.326,193.128C792.439,191.884 794.609,191.03 796.837,190.567C799.065,190.104 800.859,189.815 802.219,189.699C803.579,189.584 805.214,189.526 807.123,189.526L812.852,189.526L812.852,180.498C812.852,179.34 812.361,178.255 811.377,177.243C810.393,176.23 809.12,175.724 807.557,175.724C802.233,175.724 794.739,176.273 785.075,177.373L785.075,156.453C794.623,155.353 802.957,154.803 810.075,154.803Z"
           style="fill:rgb(230,26,26);fill-rule:nonzero;"
           id="path70" /><path
           d="M882.297,154.803C886.579,154.803 889.849,157.06 892.106,161.574C896.273,157.06 901.278,154.803 907.123,154.803C913.489,154.803 918.524,157.292 922.227,162.269C923.616,164.178 924.658,166.291 925.352,168.605C926.047,170.92 926.452,172.902 926.568,174.552C926.683,176.201 926.741,178.588 926.741,181.713L926.741,245.081L904.519,245.081L904.519,181.713C904.519,179.283 904.085,177.691 903.217,176.939C902.233,176.071 900.815,175.637 898.964,175.637C897.112,175.637 895.694,176.071 894.71,176.939C893.842,177.691 893.408,179.283 893.408,181.713L893.408,245.081L882.297,245.081L882.297,181.713C882.297,179.283 881.863,177.691 880.995,176.939C880.011,176.071 878.593,175.637 876.741,175.637C874.889,175.637 873.472,176.071 872.488,176.939C871.62,177.691 871.186,179.283 871.186,181.713L871.186,245.081L848.964,245.081L848.964,156.192L871.186,156.192L871.186,159.23L871.707,159.23C874.658,156.279 878.188,154.803 882.297,154.803Z"
           style="fill:rgb(230,26,26);fill-rule:nonzero;"
           id="path72" /><path
           d="M978.043,154.803C982.442,154.803 986.333,156.612 989.719,160.229C993.104,163.846 995.578,168.895 997.141,175.376C998.356,180.585 998.964,189.005 998.964,200.637C998.964,212.269 998.356,220.689 997.141,225.897C995.578,232.379 993.104,237.428 989.719,241.045C986.333,244.662 982.442,246.47 978.043,246.47C971.33,246.47 966.498,244.126 963.547,239.439L962.852,239.439L962.852,278.415L940.63,278.415L940.63,156.192L962.852,156.192L962.852,161.835L963.547,161.835C966.498,157.147 971.33,154.803 978.043,154.803ZM969.797,175.637C968.292,175.637 967.019,176.519 965.977,178.284C964.936,180.049 964.183,182.263 963.72,184.925C963.142,188.05 962.852,193.287 962.852,200.637C962.852,207.986 963.142,213.224 963.72,216.349C964.183,219.011 964.936,221.224 965.977,222.989C967.019,224.754 968.292,225.637 969.797,225.637C971.302,225.637 972.575,224.754 973.616,222.989C974.658,221.224 975.41,219.011 975.873,216.349C976.452,213.224 976.741,207.986 976.741,200.637C976.741,193.287 976.452,188.05 975.873,184.925C975.41,182.263 974.658,180.049 973.616,178.284C972.575,176.519 971.302,175.637 969.797,175.637Z"
           style="fill:rgb(230,26,26);fill-rule:nonzero;"
           id="path74" /><path
           d="M1031.69,111.487C1045.92,117.853 1056.99,127.17 1064.89,139.439C1072.79,151.707 1076.74,166.58 1076.74,184.057C1076.74,201.534 1072.79,216.406 1064.89,228.675C1056.99,240.943 1045.92,250.261 1031.69,256.626L1022.58,238.31C1043.87,228.588 1054.52,210.504 1054.52,184.057C1054.52,157.61 1043.87,139.526 1022.58,129.803L1031.69,111.487Z"
           style="fill:rgb(230,26,26);fill-rule:nonzero;"
           id="path76" /></g></g><g
       transform="matrix(1.0927,0.36467,-0.685441,2.05387,218.004,-1458.6)"
       id="g78"><rect
         x="2386.96"
         y="673.84"
         width="5.827"
         height="44.236"
         style="fill:black;"
         id="rect80" /></g></g></svg>