<?xml version="1.0" encoding="UTF-8" standalone="no"?>
<svg
   xmlns:dc="http://purl.org/dc/elements/1.1/"
   xmlns:cc="http://creativecommons.org/ns#"
   xmlns:rdf="http://www.w3.org/1999/02/22-rdf-syntax-ns#"
   xmlns:svg="http://www.w3.org/2000/svg"
   xmlns="http://www.w3.org/2000/svg"
   xmlns:sodipodi="http://sodipodi.sourceforge.net/DTD/sodipodi-0.dtd"
   xmlns:inkscape="http://www.inkscape.org/namespaces/inkscape"
   width="100%"
   height="100%"
   viewBox="0 0 847 291"
   version="1.1"
   xml:space="preserve"
   style="fill-rule:evenodd;clip-rule:evenodd;stroke-linejoin:round;stroke-miterlimit:1.41421;"
   id="svg2"
   inkscape:version="0.91 r13725"
   sodipodi:docname="zeroday-logo_flat.svg"><metadata
     id="metadata86"><rdf:RDF><cc:Work
         rdf:about=""><dc:format>image/svg+xml</dc:format><dc:type
           rdf:resource="http://purl.org/dc/dcmitype/StillImage" /><dc:title></dc:title></cc:Work></rdf:RDF></metadata><defs
     id="defs84" /><sodipodi:namedview
     pagecolor="#ffffff"
     bordercolor="#666666"
     borderopacity="1"
     objecttolerance="10"
     gridtolerance="10"
     guidetolerance="10"
     inkscape:pageopacity="0"
     inkscape:pageshadow="2"
     inkscape:window-width="1920"
     inkscape:window-height="1056"
     id="namedview82"
     showgrid="false"
     inkscape:zoom="1.0752698"
     inkscape:cx="279.88358"
     inkscape:cy="47.312179"
     inkscape:window-x="0"
     inkscape:window-y="24"
     inkscape:window-maximized="1"
     inkscape:current-layer="svg2" /><path
     inkscape:connector-curvature="0"
     id="path10"
     style="fill:#e61a1a;fill-rule:nonzero"
     d="m 17.000502,62.887932 c 3.338631,0 6.12702,-0.840234 8.915409,-2.513268 9.20912,6.420731 40.431642,28.727843 45.458178,31.791354 4.457705,2.788389 8.365167,5.301657 14.217067,5.576778 2.788389,0 8.919127,0.275121 18.399654,0.275121 1.94815,3.907463 6.13073,6.695853 10.87843,6.695853 6.69585,0 12.27263,-5.57678 12.27263,-12.272631 0,-6.692134 -5.57678,-12.268912 -12.27263,-12.268912 -5.8519,0 -10.87843,4.182583 -11.99379,9.759361 -8.644006,0 -14.495905,0 -17.009173,-0.278838 -3.628624,0 -5.8519,-1.394195 -10.034483,-4.182584 -4.457705,-2.788389 -34.010911,-23.976428 -44.060265,-30.947401 1.115355,-2.234429 1.944436,-5.022818 1.944436,-7.811207 0,-9.20912 -7.521215,-16.455214 -16.455213,-16.455214 -8.9154096,0 -16.45149576,7.521215 -16.45149576,16.455214 0,8.915409 6.98212626,16.176374 16.19124576,16.176374 z m 0,-24.82038 c 4.457705,0 8.090046,3.632341 8.090046,8.090046 0,4.457704 -3.632341,8.090046 -8.090046,8.090046 -4.457705,0 -8.090046,-3.632342 -8.090046,-8.090046 0,-4.457705 3.632341,-8.090046 8.090046,-8.090046 z" /><path
     inkscape:connector-curvature="0"
     id="path14"
     style="fill:#e61a1a;fill-rule:nonzero"
     d="m 33.455716,138.17444 24.541541,0 c 1.673034,4.73654 6.130738,8.09004 11.432395,8.09004 6.692134,0 12.268912,-5.57677 12.268912,-12.27263 0,-6.69585 -5.576778,-12.27263 -12.268912,-12.27263 -5.301657,0 -9.759361,3.34235 -11.432395,8.09005 l -24.541541,0 c -1.948155,-6.97097 -8.365168,-12.27263 -15.8901,-12.27263 -9.2054021,0 -16.4514959,7.52493 -16.4514959,16.45521 0,8.91913 7.5212148,16.45522 16.4514959,16.45522 7.800053,0.27512 14.220784,-5.02654 15.8901,-12.27263 z M 9.4792873,133.99185 c 0,-4.4577 3.6286237,-8.09004 8.0863287,-8.09004 4.461422,0 8.090046,3.63234 8.090046,8.09004 0,4.45771 -3.628624,8.09005 -8.090046,8.09005 -4.472576,0.27512 -8.0863287,-3.63234 -8.0863287,-8.09005 z" /><path
     inkscape:connector-curvature="0"
     id="path18"
     style="fill:#e61a1a;fill-rule:nonzero"
     d="m 37.069468,182.23842 c 7.524932,0 14.220784,-5.30166 15.8901,-12.27263 l 5.022818,0 c 1.673033,4.73283 6.130738,8.09005 11.432395,8.09005 6.692134,0 12.268912,-5.57678 12.268912,-12.27263 0,-6.69585 -5.576778,-12.27263 -12.268912,-12.27263 -5.301657,0 -9.759362,3.34235 -11.432395,8.09004 l -5.022818,0 c -1.948155,-6.97097 -8.365168,-12.27263 -15.8901,-12.27263 -9.205402,0 -16.451496,7.52494 -16.451496,16.45522 0,8.91541 7.260965,16.45521 16.451496,16.45521 z m 0,-24.82038 c 4.461422,0 8.090046,3.63234 8.090046,8.09005 0,4.4577 -3.628624,8.09004 -8.090046,8.09004 -4.457705,0 -8.086329,-3.63234 -8.086329,-8.09004 0,-4.45771 3.628624,-8.09005 8.086329,-8.09005 z" /><path
     inkscape:connector-curvature="0"
     id="path26"
     style="fill:#e61a1a;fill-rule:nonzero"
     d="m 184.70232,121.01398 c 4.73283,0 8.91541,-2.78839 10.87844,-6.69585 4.73283,0 13.09799,0 20.35896,0 18.96848,0 18.96848,-16.730334 18.96848,-22.307112 l 0,-61.619681 c 6.69585,-1.669316 11.7038,-7.814925 11.7038,-15.061019 0,-8.3651672 -6.97098,-15.33613986 -15.33614,-15.33613986 -8.36517,0 -15.33614,6.97097266 -15.33614,15.33613986 0,6.970973 4.46142,12.822872 10.87843,14.785898 l 0,61.894802 c 0,11.707512 -3.62862,13.941942 -10.59959,13.941942 -6.97098,0 -14.49591,0 -19.24361,0 -1.11907,-5.57678 -6.13073,-9.759359 -11.9975,-9.759359 -6.69586,0 -12.27263,5.576779 -12.27263,12.272629 -0.55025,6.97097 5.02653,12.54775 11.9975,12.54775 z M 224.01489,15.605439 c 0,-3.903745 3.06351,-6.9709726 6.97098,-6.9709726 3.90746,0 6.97097,3.0672276 6.97097,6.9709726 0,3.907463 -3.06351,6.970973 -6.97097,6.970973 -3.61376,0 -6.97098,-3.06351 -6.97098,-6.970973 z" /><path
     inkscape:connector-curvature="0"
     id="path30"
     style="fill:#e61a1a;fill-rule:nonzero"
     d="m 108.49616,113.35406 c -8.54624,0 -15.389745,7.81492 -15.389745,17.57428 l 0,71.37905 c 0,9.75936 6.843505,17.57428 15.389745,17.57428 l 39.55038,0 c 8.54624,0 15.38974,-7.81492 15.38974,-17.57428 l 0,-71.37905 c 0,-9.75936 -6.8435,-17.57428 -15.38974,-17.57428 l -39.55038,0 z" /><path
     inkscape:connector-curvature="0"
     id="path34"
     style="fill:#e61a1a;fill-rule:nonzero"
     d="m 91.167934,69.033542 c 7.524932,0 13.941946,-5.026536 15.890096,-11.997509 l 27.88389,0 c 3.06351,0 5.8519,0 6.97098,1.119074 0.55024,0.550242 1.39419,1.944436 1.39419,5.576778 0,5.022818 0,11.703798 -0.27884,17.005455 -4.4577,1.944437 -7.8112,6.12702 -7.8112,11.428678 0,6.695851 5.57677,12.272632 12.27263,12.272632 6.69213,0 12.26891,-5.576781 12.26891,-12.272632 0,-5.576779 -3.62863,-10.034483 -8.64029,-11.703799 0,-5.301657 0.27512,-11.707516 0.27512,-16.730334 0,-5.301657 -1.11536,-9.20912 -3.62862,-11.428678 -3.63235,-3.632341 -8.36517,-3.342349 -12.82288,-3.342349 l -27.60877,0 c -1.66931,-7.246093 -8.365163,-12.547751 -16.180088,-12.547751 -9.205402,0 -16.451495,7.524933 -16.451495,16.455214 0.01115,8.625417 7.275836,16.165221 16.466367,16.165221 z m 0,-24.820381 c 4.457704,0 8.090046,3.628624 8.090046,8.090046 0,4.457705 -3.632342,8.086329 -8.090046,8.086329 -4.457705,0 -8.090046,-3.628624 -8.090046,-8.086329 0,-4.182583 3.632341,-8.090046 8.090046,-8.090046 z" /><path
     inkscape:connector-curvature="0"
     id="path48"
     style="fill:#000000;fill-rule:nonzero"
     d="m 117.89691,147.78057 0,-18.77004 34.46483,0 0,16.4231 -19.24271,44.10878 0,0.78201 20.39145,0 0,18.76914 -36.76231,0 0,-16.57987 19.24271,-43.95111 0,-0.78201 -18.09397,0 z" /><path
     inkscape:connector-curvature="0"
     id="path50"
     style="fill:#000000;fill-rule:nonzero"
     d="m 188.43387,127.75913 c 4.4421,0 8.23374,1.47303 11.37358,4.41908 3.13985,2.94605 5.38042,6.71285 6.72039,11.3004 0.65113,2.24242 1.13948,4.87495 1.46504,7.89938 0.32557,3.02353 0.5168,5.6957 0.57437,8.0156 0.0576,2.3199 0.086,5.53984 0.086,9.6589 l 0,9.38412 -25.67591,0 c 0,4.27583 0.28719,7.27323 0.86156,8.99402 0.99588,2.76316 2.91022,4.14519 5.74435,4.14519 4.17345,0 9.91781,-0.52164 17.23176,-1.56402 l 0,18.69076 c -6.9692,1.09463 -12.71356,1.6424 -17.23176,1.6424 -4.74847,0 -8.75053,-1.51177 -12.00551,-4.5362 -3.25499,-3.02353 -5.61003,-6.95971 -7.06515,-11.80853 -0.99588,-3.2848 -1.62716,-6.80385 -1.89515,-10.55803 -0.26866,-3.75419 -0.40233,-8.55076 -0.40233,-14.38971 0,-5.9957 0.12441,-10.93642 0.37321,-14.82034 0.24881,-3.88393 0.8331,-7.46874 1.75223,-10.75354 1.26321,-4.6398 3.47467,-8.42012 6.63436,-11.33914 3.15904,-2.91993 6.97912,-4.38034 11.45894,-4.38034 z m 0,18.77004 c -0.65046,0 -1.24402,0.091 -1.78068,0.27388 -0.53599,0.18199 -0.98595,0.52074 -1.34923,1.01626 -0.36395,0.49551 -0.68025,0.93877 -0.94824,1.32977 -0.268,0.39101 -0.48835,1.04238 -0.6604,1.95503 -0.17204,0.91264 -0.30637,1.62888 -0.40232,2.15052 -0.0953,0.52164 -0.17205,1.39465 -0.22962,2.61992 -0.0576,1.22527 -0.086,2.08566 -0.086,2.58117 0,0.49461 -0.0192,1.42077 -0.0576,2.77577 l 11.02883,0 c -0.0768,-5.36956 -0.38314,-8.91563 -0.91913,-10.63551 -0.76627,-2.71181 -2.29748,-4.06681 -4.59562,-4.06681 z" /><path
     inkscape:connector-curvature="0"
     id="path52"
     style="fill:#000000;fill-rule:nonzero"
     d="m 249.78092,146.52917 c -3.17822,0 -5.72517,1.38113 -7.63951,4.14429 -0.9575,1.46041 -1.73304,3.06317 -2.3266,4.81008 -0.59355,1.74691 -1.00514,3.70194 -1.23476,5.86508 -0.23027,2.16404 -0.37387,3.91095 -0.43077,5.23982 -0.0576,1.32978 -0.0867,3.11543 -0.0867,5.35785 l 0,37.14727 -14.70466,0 0,-80.08303 14.70466,0 0,8.52463 0.57437,0 c 1.53187,-3.1803 3.20734,-5.60471 5.0264,-7.27324 1.81905,-1.66852 4.0497,-2.50279 6.69193,-2.50279 2.68062,0 5.9356,0.33965 9.76495,1.01715 l 0,18.76914 c -4.05963,-0.6775 -7.50585,-1.01625 -10.33932,-1.01625 z" /><path
     inkscape:connector-curvature="0"
     id="path54"
     style="fill:#000000;fill-rule:nonzero"
     d="m 295.0443,127.75913 c 3.56069,0 6.74884,1.10815 9.56378,3.32444 2.81428,2.2154 5.12169,5.27857 6.92155,9.18862 1.4935,3.33706 2.48872,7.28675 2.98699,11.84817 0.49761,4.56232 0.74642,10.20577 0.74642,16.93213 0,6.72547 -0.24881,12.36891 -0.74642,16.93124 -0.49827,4.56232 -1.49349,8.51111 -2.98699,11.84817 -1.79986,3.91005 -4.10727,6.97322 -6.92155,9.18951 -2.81494,2.2154 -6.00309,3.32355 -9.56378,3.32355 -3.56136,0 -6.74951,-1.10815 -9.56445,-3.32355 -2.81428,-2.21629 -5.12168,-5.27946 -6.92155,-9.18951 -1.49349,-3.33706 -2.48871,-7.28585 -2.98699,-11.84817 -0.49761,-4.56233 -0.74641,-10.20577 -0.74641,-16.93124 0,-6.72636 0.2488,-12.36981 0.74641,-16.93213 0.49828,-4.56142 1.4935,-8.51111 2.98699,-11.84817 1.79987,-3.91005 4.10727,-6.97322 6.92155,-9.18862 2.81494,-2.21629 6.00309,-3.32444 9.56445,-3.32444 z m 0,18.77004 c -1.95339,0 -3.4085,1.79826 -4.36601,5.39569 -0.7656,2.86767 -1.14873,8.57688 -1.14873,17.12763 0,8.54986 0.38313,14.25907 1.14873,17.12674 0.95751,3.59743 2.41262,5.39659 4.36601,5.39659 1.95272,0 3.40784,-1.79916 4.36534,-5.39659 0.76561,-2.86767 1.14874,-8.57688 1.14874,-17.12674 0,-8.55075 -0.38313,-14.25996 -1.14874,-17.12763 -0.9575,-3.59743 -2.41262,-5.39569 -4.36534,-5.39569 z" /><rect
     id="rect56"
     style="fill:#000000;fill-rule:nonzero"
     height="18.769136"
     width="51.466965"
     y="209.09355"
     x="322.61536" /><path
     inkscape:connector-curvature="0"
     id="path58"
     style="fill:#000000;fill-rule:nonzero"
     d="m 395.27776,127.75913 c 4.44211,0 7.63952,2.11179 9.5929,6.33536 l 0.45924,0 0,-35.114763 14.70465,0 0,110.113833 -14.70465,0 0,-5.08306 -0.45924,0 c -1.95338,4.22267 -5.15079,6.33446 -9.5929,6.33446 -2.91022,0 -5.48562,-1.62889 -7.72553,-4.88757 -2.24057,-3.25867 -3.877,-7.80748 -4.91126,-13.64733 -0.80399,-4.69206 -1.20631,-12.27791 -1.20631,-22.75757 0,-10.47965 0.40232,-18.0655 1.20631,-22.75846 1.03426,-5.83895 2.67069,-10.38776 4.91126,-13.64644 2.23991,-3.25867 4.81531,-4.88846 7.72553,-4.88846 z m 5.45718,18.77004 c -0.99588,0 -1.83825,0.79462 -2.52776,2.38477 -0.68884,1.59015 -1.18712,3.58481 -1.49349,5.9831 -0.38247,2.81541 -0.57437,7.5336 -0.57437,14.15545 0,6.62096 0.1919,11.34005 0.57437,14.15546 0.30637,2.39829 0.80465,4.39205 1.49349,5.9822 0.68951,1.59015 1.53188,2.38567 2.52776,2.38567 0.99522,0 1.83825,-0.79552 2.52709,-2.38567 0.68951,-1.59015 1.18712,-3.58391 1.4935,-5.9822 0.38313,-2.81541 0.57437,-7.5345 0.57437,-14.15546 0,-6.62185 -0.19124,-11.34004 -0.57437,-14.15545 -0.30638,-2.39829 -0.80399,-4.39295 -1.4935,-5.9831 -0.68884,-1.59015 -1.53187,-2.38477 -2.52709,-2.38477 z" /><path
     inkscape:connector-curvature="0"
     id="path60"
     style="fill:#000000;fill-rule:nonzero"
     d="m 458.63511,176.16896 -3.90611,0 c -1.87663,0 -3.22653,0.74327 -4.04971,2.22891 -0.82317,1.48564 -1.23476,3.81906 -1.23476,6.99935 0,1.77304 0.30638,3.24606 0.91913,4.41908 0.61274,1.17301 1.49349,1.75952 2.64223,1.75952 1.30159,0 2.36431,-0.44326 3.18815,-1.32978 0.82317,-0.88652 1.39754,-2.15052 1.72311,-3.79293 0.32556,-1.6424 0.52606,-3.03704 0.60282,-4.18393 0.0768,-1.14689 0.11514,-2.58117 0.11514,-4.30105 l 0,-1.79917 z m -1.83825,-48.40983 c 3.29336,0 6.1844,0.69102 8.67378,2.07305 2.48871,1.38113 4.53738,4.00104 6.14602,7.85974 1.14874,2.76316 1.72311,7.03809 1.72311,12.82568 l 0,58.57596 -14.70466,0 0,-4.14519 -0.57437,0 c -2.14462,3.59832 -4.86362,5.39659 -8.15698,5.39659 -4.05896,0 -7.60113,-2.37216 -10.6265,-7.11647 -3.0247,-4.74432 -4.53739,-10.63642 -4.53739,-17.67451 0,-7.66423 1.68473,-13.97347 5.05485,-18.9259 1.22484,-1.77303 2.53636,-3.21993 3.93457,-4.34069 1.39754,-1.12076 2.83347,-1.89016 4.30777,-2.30729 1.4743,-0.41713 2.66142,-0.6775 3.56136,-0.78201 0.89993,-0.10361 1.98184,-0.15586 3.24572,-0.15586 l 3.79097,0 0,-8.13363 c 0,-1.04328 -0.32557,-2.02079 -0.9767,-2.93253 -0.65112,-0.91265 -1.49349,-1.36852 -2.52709,-1.36852 -3.52298,0 -8.48254,0.49461 -14.87737,1.48564 l 0,-18.84752 c 6.31873,-0.99103 11.83281,-1.48654 16.54291,-1.48654 z" /><path
     inkscape:connector-curvature="0"
     id="path62"
     style="fill:#000000;fill-rule:nonzero"
     d="m 508.60858,182.26918 c 3.2166,-16.57987 5.87802,-34.33275 7.98427,-53.25865 l 14.70466,0 c -1.64702,14.02482 -3.27418,26.09462 -4.88281,36.2094 -1.60797,10.11477 -3.86773,21.40256 -6.77796,33.86336 -0.80398,3.44157 -1.4743,6.16509 -2.01029,8.17237 -0.53599,2.00728 -1.2255,4.31457 -2.06786,6.92187 -0.84237,2.60639 -1.77076,4.78305 -2.78583,6.52996 -1.01507,1.74601 -2.1347,3.16678 -3.3602,4.26231 -1.49349,1.2514 -2.80501,2.20278 -3.93456,2.85416 -1.12955,0.65227 -3.00618,1.23878 -5.62922,1.75952 -2.62304,0.52164 -5.94552,0.78201 -9.96611,0.78201 l 0,-18.76914 c 2.79575,0 4.91126,-0.11712 6.34718,-0.35226 1.43593,-0.23424 2.65216,-0.83427 3.64738,-1.79826 0.99589,-0.9649 1.72311,-2.08566 2.18301,-3.36319 0.45923,-1.27752 1.07198,-3.29741 1.83824,-6.06057 0.11448,-0.41714 0.19124,-0.72976 0.22962,-0.93878 l -5.68679,0 c -2.94861,-10.16702 -5.42806,-20.82867 -7.43835,-31.98582 -2.01096,-11.15806 -3.93457,-23.8531 -5.77281,-38.08694 l 14.76222,0 c 1.91435,19.0304 4.59496,36.78329 8.04184,53.25865 l 0.57437,0 z" /><path
     inkscape:connector-curvature="0"
     id="path66"
     style="fill:#e61a1a;fill-rule:nonzero"
     d="m 573.11391,88.734317 6.03088,16.501493 c -14.09191,8.75977 -21.13786,25.05224 -21.13786,48.87922 0,23.82697 7.04595,40.11944 21.13786,48.87831 l -6.03088,16.50149 c -9.42019,-5.73444 -16.74407,-14.12933 -21.97097,-25.18198 -5.22755,-11.05354 -7.84067,-24.45222 -7.84067,-40.19782 0,-15.74561 2.61312,-29.14519 7.84067,-40.19783 5.2269,-11.05355 12.55078,-19.447543 21.97097,-25.182883 z" /><path
     inkscape:connector-curvature="0"
     id="path68"
     style="fill:#e61a1a;fill-rule:nonzero"
     d="m 594.6541,169.05249 c 0,-5.83984 0.14359,-10.63641 0.43077,-14.3897 0.28719,-3.75419 0.96677,-7.27323 2.03875,-10.55803 3.48526,-10.89679 9.97603,-16.34563 19.47232,-16.34563 4.32763,0 9.68885,0.46939 16.08368,1.40816 l 0,18.76914 c -6.47159,-0.93787 -11.83281,-1.40726 -16.08368,-1.40726 -1.64635,0 -2.9486,0.59912 -3.90545,1.79826 -0.9575,1.19914 -1.74229,3.02443 -2.35504,5.47497 -0.65113,2.71091 -0.9767,7.79397 -0.9767,15.25009 0,7.45522 0.32557,12.53919 0.9767,15.2501 0.61275,2.45053 1.39754,4.27492 2.35504,5.47407 0.95685,1.19914 2.2591,1.79916 3.90545,1.79916 4.48048,0 10.03361,-0.6784 16.65805,-2.03341 l 0,18.76914 c -6.58673,1.3559 -12.13919,2.03341 -16.65805,2.03341 -9.49629,0 -15.98706,-5.44795 -19.47232,-16.34473 -1.07198,-3.2848 -1.75156,-6.80385 -2.03875,-10.55803 -0.28718,-3.75419 -0.43077,-8.55076 -0.43077,-14.38971 z" /><path
     inkscape:connector-curvature="0"
     id="path70"
     style="fill:#e61a1a;fill-rule:nonzero"
     d="m 671.85388,176.16896 -3.90545,0 c -1.87663,0 -3.22653,0.74327 -4.0497,2.22891 -0.82318,1.48564 -1.23476,3.81906 -1.23476,6.99935 0,1.77304 0.30637,3.24606 0.91846,4.41908 0.61275,1.17301 1.49349,1.75952 2.64223,1.75952 1.30226,0 2.36497,-0.44326 3.18815,-1.32978 0.82317,-0.88652 1.39754,-2.15052 1.72311,-3.79293 0.32556,-1.6424 0.52672,-3.03704 0.60348,-4.18393 0.0768,-1.14689 0.11448,-2.58117 0.11448,-4.30105 l 0,-1.79917 z m -1.83758,-48.40983 c 3.29336,0 6.18439,0.69102 8.67311,2.07305 2.48938,1.38113 4.53805,4.00104 6.14602,7.85974 1.1494,2.76316 1.72377,7.03809 1.72377,12.82568 l 0,58.57596 -14.70532,0 0,-4.14519 -0.57437,0 c -2.14396,3.59832 -4.86295,5.39659 -8.15631,5.39659 -4.05897,0 -7.60114,-2.37216 -10.6265,-7.11647 -3.02537,-4.74432 -4.53805,-10.63642 -4.53805,-17.67451 0,-7.66423 1.68539,-13.97347 5.05485,-18.9259 1.22549,-1.77303 2.53702,-3.21993 3.93456,-4.34069 1.39821,-1.12076 2.83413,-1.89016 4.30844,-2.30729 1.4743,-0.41713 2.66142,-0.6775 3.56135,-0.78201 0.89994,-0.10361 1.98184,-0.15586 3.24506,-0.15586 l 3.79097,0 0,-8.13363 c 0,-1.04328 -0.3249,-2.02079 -0.97603,-2.93253 -0.65113,-0.91265 -1.49349,-1.36852 -2.52776,-1.36852 -3.52297,0 -8.48188,0.49461 -14.8767,1.48564 l 0,-18.84752 c 6.31807,-0.99103 11.83281,-1.48654 16.54291,-1.48654 z" /><path
     inkscape:connector-curvature="0"
     id="path72"
     style="fill:#e61a1a;fill-rule:nonzero"
     d="m 717.80676,127.75913 c 2.83347,0 4.99729,2.03341 6.49078,6.10022 2.75737,-4.06681 6.06926,-6.10022 9.93699,-6.10022 4.21249,0 7.54423,2.24242 9.99456,6.72637 0.91913,1.71988 1.60864,3.62355 2.06787,5.70831 0.45989,2.08566 0.72788,3.87131 0.80464,5.35785 0.0761,1.48564 0.11448,3.63616 0.11448,6.45158 l 0,57.09032 -14.70466,0 0,-57.09032 c 0,-2.18927 -0.28718,-3.62355 -0.86155,-4.30106 -0.65113,-0.78201 -1.58944,-1.17301 -2.81428,-1.17301 -1.2255,0 -2.16381,0.391 -2.81494,1.17301 -0.57437,0.67751 -0.86156,2.11179 -0.86156,4.30106 l 0,57.09032 -7.35233,0 0,-57.09032 c 0,-2.18927 -0.28718,-3.62355 -0.86155,-4.30106 -0.65113,-0.78201 -1.58944,-1.17301 -2.81494,-1.17301 -1.2255,0 -2.16315,0.391 -2.81428,1.17301 -0.57437,0.67751 -0.86155,2.11179 -0.86155,4.30106 l 0,57.09032 -14.70466,0 0,-80.08303 14.70466,0 0,2.73703 0.34475,0 c 1.95272,-2.65865 4.28858,-3.98843 7.00757,-3.98843 z" /><path
     inkscape:connector-curvature="0"
     id="path74"
     style="fill:#e61a1a;fill-rule:nonzero"
     d="m 781.16345,127.75913 c 2.91089,0 5.48562,1.62979 7.7262,4.88846 2.2399,3.25868 3.87699,7.80749 4.91125,13.64644 0.80399,4.69296 1.20631,12.27881 1.20631,22.75846 0,10.47966 -0.40232,18.06551 -1.20631,22.75757 -1.03426,5.83985 -2.67135,10.38866 -4.91125,13.64733 -2.24058,3.25868 -4.81531,4.88757 -7.7262,4.88757 -4.4421,0 -7.63952,-2.11179 -9.59224,-6.33446 l -0.45989,0 0,35.11476 -14.70466,0 0,-110.11473 14.70466,0 0,5.08396 0.45989,0 c 1.95272,-4.22357 5.15014,-6.33536 9.59224,-6.33536 z m -5.45652,18.77004 c -0.99588,0 -1.83824,0.79462 -2.52775,2.38477 -0.68885,1.59015 -1.18712,3.58481 -1.49349,5.9831 -0.38248,2.81541 -0.57437,7.5336 -0.57437,14.15545 0,6.62096 0.19189,11.34005 0.57437,14.15546 0.30637,2.39829 0.80464,4.39205 1.49349,5.9822 0.68951,1.59015 1.53187,2.38567 2.52775,2.38567 0.99589,0 1.83825,-0.79552 2.5271,-2.38567 0.68951,-1.59015 1.18712,-3.58391 1.49349,-5.9822 0.38314,-2.81541 0.57437,-7.5345 0.57437,-14.15546 0,-6.62185 -0.19123,-11.34004 -0.57437,-14.15545 -0.30637,-2.39829 -0.80398,-4.39295 -1.49349,-5.9831 -0.68885,-1.59015 -1.53121,-2.38477 -2.5271,-2.38477 z" /><path
     inkscape:connector-curvature="0"
     id="path76"
     style="fill:#e61a1a;fill-rule:nonzero"
     d="m 816.66254,88.734317 c 9.41622,5.73534 16.74142,14.129333 21.96898,25.182883 5.22755,11.05264 7.84133,24.45222 7.84133,40.19783 0,15.7456 -2.61378,29.14428 -7.84133,40.19782 -5.22756,11.05265 -12.55276,19.44754 -21.96898,25.18198 l -6.02824,-16.50149 c 14.08794,-8.75887 21.13522,-25.05134 21.13522,-48.87831 0,-23.82698 -7.04728,-40.11945 -21.13522,-48.87922 l 6.02824,-16.501493 z" /><rect
     x="327.71515"
     y="18.583843"
     width="6.7123842"
     height="95.781013"
     style="fill:#000000"
     id="rect80"
     transform="matrix(0.94856952,0.31656891,-0.31656762,0.94856995,0,0)" /><path
     inkscape:connector-curvature="0"
     id="path14-7"
     style="clip-rule:evenodd;fill:#e61a1a;fill-rule:nonzero;stroke-linejoin:round;stroke-miterlimit:1.41420996"
     d="m 33.45571,207.59881 24.54154,0 c 1.67304,4.73654 6.13074,8.09004 11.4324,8.09004 6.69213,0 12.26891,-5.57677 12.26891,-12.27263 0,-6.69585 -5.57678,-12.27263 -12.26891,-12.27263 -5.30166,0 -9.75936,3.34235 -11.4324,8.09005 l -24.54154,0 c -1.94815,-6.97097 -8.36517,-12.27263 -15.8901,-12.27263 -9.2053999,0 -16.4514899,7.52493 -16.4514899,16.45521 0,8.91913 7.52121,16.45522 16.4514899,16.45522 7.80006,0.27512 14.22079,-5.02654 15.8901,-12.27263 z M 9.4792801,203.41622 c 0,-4.4577 3.6286299,-8.09004 8.0863299,-8.09004 4.46142,0 8.09005,3.63234 8.09005,8.09004 0,4.45771 -3.62863,8.09005 -8.09005,8.09005 -4.47257,0.27512 -8.0863299,-3.63234 -8.0863299,-8.09005 z" /></svg>